# xmcd
#
# Track frame offsets: 
#        150
#        21189
#        40322
#        62363
#        86744
#        99813
#        124546
#        142242
#        156482
#
# Disc length: 2230 seconds
#
# Revision: 0
# Processed by: cddbd v1.5.2PL0 Copyright (c) Steve Scherf et al.
# Submitted via: ExactAudioCopy v0.95b3
#
DISCID=7208b409
DTITLE=Elf  - Carolina County Ball Flac
DYEAR=1900
DGENRE=
TTITLE0=Carolina County Ball
TTITLE1=L.A. 59
TTITLE2=Ain't It All Amusing
TTITLE3=Happy
TTITLE4=Annie New Orleans
TTITLE5=Rocking Chair Rock N Roll Blues
TTITLE6=Rainbow
TTITLE7=Do The Same Thing
TTITLE8=Blanche
EXTD=
EXTT0=
EXTT1=
EXTT2=
EXTT3=
EXTT4=
EXTT5=
EXTT6=
EXTT7=
EXTT8=
PLAYORDER=
